<svg width="1000" height="1000" viewBox="0 0 1000 1000" fill="none" xmlns="http://www.w3.org/2000/svg">
<rect width="1000" height="1000" rx="250" fill="#FFD60A"/>
<path d="M498.893 102.011C500.352 102.017 501.812 102.022 503.315 102.028C527.381 102.158 550.397 103.912 573.802 109.865C575.299 110.235 576.796 110.605 578.339 110.986C631.172 124.405 677.789 152.175 717.201 189.513C718.785 191.003 720.369 192.493 722.001 194.028C760.12 230.91 787.836 280.584 801.625 331.663C801.963 332.896 802.3 334.13 802.647 335.402C803.785 339.85 804.75 344.32 805.719 348.809C806.161 350.727 806.603 352.646 807.057 354.622C812.649 381.372 811.843 408.617 811.802 435.803C811.797 441.508 811.808 447.212 811.818 452.916C811.843 466.39 811.84 479.863 811.82 493.337C811.8 507.147 811.825 520.957 811.872 534.768C811.912 546.716 811.923 558.664 811.913 570.612C811.907 577.708 811.911 584.804 811.942 591.901C812.164 648.417 812.164 648.417 803.949 672.71C803.219 674.929 803.219 674.929 802.474 677.193C785.784 723.321 751.853 756.623 708.349 777.974C688.319 786.871 666.527 792.237 644.616 793.067C643.315 793.158 642.015 793.249 640.674 793.343C619.832 794.203 598.953 789.492 579.037 783.857C577.775 783.502 576.513 783.147 575.213 782.781C568.876 780.985 562.558 779.14 556.257 777.224C530.649 769.65 506.781 768.562 482.407 781.12C462.627 792.873 450.955 809.011 443.977 830.906C442.182 840.633 442.433 850.258 442.899 860.117C443.312 871.099 442.349 879.584 434.766 888.188C419.128 899.783 398.595 897.351 379.727 895.192C338.163 888.723 299.581 871.551 267.529 844.395C265.748 842.905 263.968 841.416 262.134 839.881C225.704 808.495 201.801 765.461 191.403 718.729C191.104 717.46 190.806 716.192 190.498 714.885C187.235 699.447 187.337 684.14 187.348 668.449C187.337 665.374 187.325 662.298 187.312 659.222C187.281 650.913 187.272 642.603 187.27 634.293C187.267 629.08 187.26 623.867 187.25 618.654C187.218 600.406 187.203 582.158 187.206 563.91C187.208 547.004 187.171 530.099 187.115 513.194C187.068 498.602 187.05 484.01 187.052 469.418C187.053 460.738 187.043 452.059 187.005 443.379C186.62 348.562 207.796 267.084 274.61 196.593C276.1 195.01 277.59 193.426 279.126 191.795C316.017 153.685 365.702 125.975 416.792 112.189C418.027 111.852 419.261 111.515 420.532 111.167C446.494 104.527 472.15 101.8 498.893 102.011ZM332.368 321.153C329.604 323.846 326.871 326.573 324.18 329.339C322.623 330.842 322.623 330.842 321.034 332.375C304.918 349.142 302.086 371.582 302.445 393.715C303.372 416.364 314.856 434.635 330.916 449.959C351.178 467.044 372.513 471.075 398.306 469.532C419.004 467.521 436.575 455.546 450.595 440.736C467.278 420.46 471.25 399.4 469.724 373.826C467.602 352.411 455.331 335.196 440.25 320.628C409.133 295.399 362.784 294.432 332.368 321.153ZM558.975 321.153C556.21 323.846 553.477 326.573 550.787 329.339C549.229 330.842 549.229 330.842 547.64 332.375C531.525 349.142 528.692 371.582 529.052 393.715C529.979 416.364 541.462 434.635 557.523 449.959C577.785 467.044 599.12 471.075 624.912 469.532C645.611 467.521 663.182 455.546 677.202 440.736C693.884 420.46 697.857 399.4 696.331 373.826C694.209 352.411 681.937 335.196 666.856 320.628C635.74 295.399 589.391 294.432 558.975 321.153Z" fill="black"/>
</svg>
