<svg width="1223" height="311" viewBox="0 0 1223 311" fill="none" xmlns="http://www.w3.org/2000/svg">
<path d="M948.516 0.3125L1035.28 0.3125V80.2405C1035.28 87.0826 1036.63 93.6137 1039.33 99.8338C1042.02 105.846 1045.55 111.134 1049.9 115.695C1054.46 120.256 1059.75 123.885 1065.76 126.58C1071.98 129.068 1078.51 130.312 1085.36 130.312C1092.4 130.312 1098.94 129.068 1104.95 126.58C1110.96 123.885 1116.25 120.256 1120.81 115.695C1125.37 111.134 1128.9 105.846 1131.38 99.8338C1134.08 93.6137 1135.43 87.0826 1135.43 80.2405V0.3125L1222.82 0.3125V116.628C1222.82 125.958 1219.71 134.148 1213.49 141.197C1200.43 156.125 1188.19 170.121 1176.79 183.183C1165.39 196.038 1154.6 208.27 1144.45 219.881C1135.74 229.833 1127.24 239.578 1118.94 249.116C1110.86 258.446 1103.5 266.739 1096.86 273.996C1092.92 278.35 1089.19 282.6 1085.67 286.747C1082.14 290.687 1078.62 294.626 1075.09 298.565C1071.57 302.505 1067.42 305.615 1062.65 307.895C1057.88 309.969 1052.8 311.005 1047.41 311.005H948.516V232.321H1059.23C1069.6 232.321 1079.34 230.352 1088.47 226.412C1097.8 222.473 1105.88 217.186 1112.72 210.551C1119.77 203.709 1125.27 195.727 1129.21 186.604C1133.35 177.481 1135.43 167.736 1135.43 157.369L1091.89 198.111C1084.01 205.368 1074.68 208.996 1063.9 208.996H1048.97C1039.22 208.996 1030.83 205.782 1023.78 199.355C1023.36 198.94 1021.5 197.282 1018.18 194.379C1015.07 191.476 1011.23 187.952 1006.67 183.805C1002.11 179.451 997.239 174.993 992.056 170.432C986.872 165.663 982 161.205 977.439 157.058C972.877 152.704 968.938 149.076 965.621 146.173C962.511 143.271 960.748 141.612 960.334 141.197C952.455 133.733 948.516 124.61 948.516 113.829V0.3125Z" fill="#FFD60A"/>
<path d="M754.339 0.310981V120.669H796.324C802.13 120.669 807.52 119.633 812.496 117.559C817.679 115.279 822.137 112.272 825.869 108.54C829.808 104.808 832.815 100.454 834.888 95.4782C837.169 90.2948 838.309 84.8004 838.309 78.995V0L925.389 0V71.2199C925.389 76.818 924.249 82.2087 921.968 87.3921C919.687 92.5755 916.474 97.1369 912.327 101.076L878.739 132.799C870.653 140.263 861.323 143.995 850.749 143.995H832.4L911.394 212.727C915.748 216.459 919.169 221.02 921.657 226.411C924.145 231.802 925.389 237.503 925.389 243.516V311.004H838.309V272.439C838.309 259.17 833.126 248.492 822.759 240.406L754.339 185.98V311.004H667.57V48.8794V0.310981L754.339 0.310981Z" fill="#FFD60A"/>
<path d="M375.695 212.728C375.695 201.947 379.635 192.824 387.513 185.36L450.957 127.202C458.007 120.775 466.404 117.561 476.148 117.561L529.329 117.561C531.817 117.561 534.201 117.043 536.482 116.006C538.97 114.969 541.147 113.622 543.013 111.963C544.879 110.097 546.33 108.024 547.367 105.743C548.404 103.255 548.922 100.663 548.922 97.9677C548.715 92.577 546.745 88.1193 543.013 84.5946C539.488 80.8625 535.031 78.9965 529.64 78.9965L375.695 78.9965V0.3125L486.411 0.3125C491.802 0.3125 496.882 1.45285 501.65 3.73356C506.419 5.80691 510.566 8.81328 514.09 12.7527C514.712 13.3747 517.304 16.2774 521.865 21.4608C526.427 26.6442 532.128 33.1753 538.97 41.054C546.019 48.9328 553.898 57.8482 562.606 67.8003C571.314 77.5451 580.022 87.4973 588.73 97.6567C597.438 107.609 605.835 117.25 613.921 126.58C622.214 135.91 629.367 143.996 635.38 150.838C641.6 157.68 644.71 165.663 644.71 174.786C644.71 180.798 642.533 185.878 638.179 190.025C634.032 194.172 628.953 196.245 622.94 196.245H477.392C472.624 196.245 468.373 198.007 464.641 201.532C460.909 205.057 459.043 209.307 459.043 214.283C459.043 219.259 460.702 223.51 464.019 227.034C467.544 230.559 471.794 232.321 476.77 232.321H644.71V311.005H447.847C436.859 311.005 427.632 306.962 420.168 298.876C414.985 293.071 410.216 287.784 405.862 283.015C401.716 278.039 398.087 273.789 394.977 270.264C393.111 268.191 391.349 266.221 389.69 264.355C388.032 262.281 386.373 260.415 384.714 258.757C378.702 251.5 375.695 243.31 375.695 234.187V212.728Z" fill="#FFD60A"/>
<path d="M352.68 194.69C352.68 185.36 349.673 177.066 343.661 169.81C343.039 169.188 340.654 166.492 336.508 161.724C332.154 156.955 326.763 150.942 320.336 143.685C313.908 136.429 306.755 128.239 298.877 119.116C290.791 109.993 282.601 100.663 274.308 91.1256C265.807 81.5882 257.617 72.2581 249.739 63.1353C241.653 54.0125 234.396 45.8227 227.969 38.566C221.541 31.3092 216.254 25.4002 212.108 20.8388C207.961 16.07 205.577 13.3747 204.955 12.7527C201.43 8.81328 197.283 5.80691 192.515 3.73356C187.746 1.45285 182.667 0.3125 177.276 0.3125L100.148 0.3125C90.6106 0.3125 82.3173 3.52621 75.2679 9.95363L11.824 68.1114C3.94536 75.3681 0.00602132 84.3872 0.00602132 95.1687V116.628C0.00602132 125.751 3.01236 133.941 9.025 141.197C9.025 141.197 10.9947 143.478 14.934 148.039C18.8733 152.393 24.0566 158.199 30.484 165.456C36.9113 172.712 44.2716 181.109 52.5649 190.647C60.8583 199.977 69.359 209.514 78.067 219.259C86.5676 229.004 94.9646 238.645 103.258 248.183C111.344 257.513 118.704 265.91 125.339 273.374C131.766 280.631 137.053 286.643 141.2 291.412C145.347 295.974 147.524 298.358 147.731 298.565C151.256 302.505 155.402 305.615 160.171 307.895C164.94 309.969 170.019 311.005 175.41 311.005H252.227C261.971 311.005 270.368 307.792 277.418 301.364L340.862 243.207C348.74 235.95 352.68 226.931 352.68 216.149V194.69ZM189.094 78.9965C199.668 78.9965 209.62 81.0698 218.95 85.2166C228.28 89.156 236.469 94.5467 243.519 101.389C250.361 108.231 255.855 116.317 260.002 125.647C263.941 134.977 265.911 144.929 265.911 155.503C265.911 166.7 263.941 177.066 260.002 186.604C256.062 195.934 250.672 204.02 243.83 210.862C236.988 217.497 229.109 222.784 220.194 226.723C211.071 230.455 201.326 232.321 190.96 232.321H163.592C153.018 232.321 143.066 230.352 133.736 226.412C124.406 222.266 116.32 216.771 109.478 209.929C102.636 202.88 97.2453 194.69 93.3059 185.36C89.1593 176.03 87.0859 166.078 87.0859 155.503C87.0859 144.307 89.0556 134.044 92.9949 124.714C96.9342 115.384 102.325 107.402 109.167 100.767C116.009 93.9247 123.991 88.6376 133.114 84.9056C142.029 80.9662 151.567 78.9965 161.726 78.9965H189.094Z" fill="#FFD60A"/>
</svg>
