<svg width="1003" height="255" viewBox="0 0 1003 255" fill="none" xmlns="http://www.w3.org/2000/svg">
<path d="M777.243 0.258084H848.343V65.7497C848.343 71.356 849.448 76.7074 851.656 81.8041C853.865 86.7308 856.753 91.0629 860.321 94.8005C864.058 98.538 868.391 101.511 873.318 103.72C878.414 105.758 883.766 106.778 889.373 106.778C895.149 106.778 900.501 105.758 905.427 103.72C910.354 101.511 914.687 98.538 918.424 94.8005C922.162 91.0629 925.05 86.7308 927.089 81.8041C929.298 76.7074 930.402 71.356 930.402 65.7497V0.258084H1002.01V95.565C1002.01 103.21 999.464 109.92 994.367 115.697C983.664 127.929 973.64 139.396 964.296 150.099C954.952 160.632 946.117 170.655 937.792 180.169C930.657 188.323 923.691 196.308 916.895 204.123C910.269 211.768 904.238 218.563 898.802 224.51C895.574 228.077 892.516 231.56 889.627 234.958C886.739 238.186 883.851 241.413 880.963 244.641C878.075 247.869 874.677 250.417 870.769 252.286C866.862 253.985 862.699 254.834 858.282 254.834H777.243V190.362H867.966C876.461 190.362 884.446 188.748 891.921 185.52C899.566 182.293 906.192 177.96 911.799 172.524C917.575 166.918 922.077 160.377 925.305 152.902C928.703 145.427 930.402 137.442 930.402 128.948L894.724 162.331C888.268 168.277 880.623 171.25 871.789 171.25H859.556C851.571 171.25 844.69 168.617 838.914 163.35C838.574 163.01 837.045 161.651 834.327 159.273C831.778 156.894 828.635 154.006 824.898 150.608C821.16 147.041 817.168 143.388 812.92 139.651C808.673 135.743 804.68 132.091 800.943 128.693C797.205 125.125 793.977 122.152 791.259 119.774C788.71 117.396 787.266 116.036 786.927 115.697C780.471 109.581 777.243 102.106 777.243 93.2715V0.258084Z" fill="#222222"/>
<path d="M618.112 0.254812V98.8745H652.515C657.272 98.8745 661.689 98.025 665.767 96.3262C670.014 94.4574 673.667 91.994 676.725 88.9361C679.953 85.8781 682.416 82.3105 684.115 78.2332C685.984 73.986 686.919 69.484 686.919 64.7271V0H758.274V58.3563C758.274 62.9433 757.34 67.3604 755.471 71.6076C753.602 75.8547 750.969 79.5923 747.571 82.8201L720.048 108.813C713.422 114.929 705.777 117.987 697.112 117.987H682.077L746.806 174.305C750.374 177.362 753.177 181.1 755.216 185.517C757.255 189.934 758.274 194.606 758.274 199.533V254.831H686.919V223.232C686.919 212.359 682.671 203.61 674.177 196.985L618.112 152.389V254.831H547.011V0.254812H618.112Z" fill="#222222"/>
<path d="M307.865 174.308C307.865 165.474 311.093 157.999 317.549 151.883L369.536 104.229C375.312 98.9627 382.193 96.3294 390.178 96.3294H433.756C435.795 96.3294 437.749 95.9047 439.617 95.0553C441.656 94.2059 443.44 93.1016 444.969 91.7425C446.498 90.2135 447.687 88.5146 448.537 86.6459C449.386 84.6072 449.811 82.4836 449.811 80.2751C449.641 75.858 448.027 72.2054 444.969 69.3173C442.081 66.2594 438.428 64.7304 434.011 64.7304H307.865V0.258084H398.588C403.005 0.258084 407.168 1.19247 411.075 3.06124C414.983 4.76011 418.381 7.22348 421.269 10.4513C421.778 10.961 423.902 13.3394 427.64 17.5866C431.377 21.8338 436.05 27.1853 441.656 33.641C447.432 40.0967 453.888 47.4019 461.024 55.5565C468.159 63.5412 475.295 71.6958 482.431 80.0203C489.566 88.1749 496.447 96.0746 503.073 103.72C509.868 111.364 515.73 117.99 520.657 123.596C525.754 129.203 528.302 135.743 528.302 143.218C528.302 148.145 526.518 152.307 522.95 155.705C519.552 159.103 515.39 160.802 510.463 160.802H391.198C387.29 160.802 383.807 162.246 380.749 165.134C377.691 168.022 376.162 171.505 376.162 175.582C376.162 179.659 377.521 183.142 380.239 186.03C383.128 188.918 386.61 190.362 390.688 190.362H528.302V254.834H366.988C357.983 254.834 350.423 251.522 344.307 244.896C340.06 240.139 336.152 235.807 332.584 231.9C329.186 227.822 326.213 224.34 323.665 221.452C322.136 219.753 320.692 218.139 319.332 216.61C317.973 214.911 316.614 213.382 315.255 212.023C310.328 206.077 307.865 199.366 307.865 191.891V174.308Z" fill="#222222"/>
<path d="M112.587 92.043C118.433 86.8124 127.341 87.002 133.322 91.9404C136.221 94.7921 138.58 98.1616 138.988 102.354C139.282 107.359 138.518 111.482 135.312 115.451C132.617 118.35 129.239 120.694 125.261 121.088C120.303 121.39 116.202 120.6 112.308 117.256C109.221 114.256 107.013 110.68 106.835 106.246C106.766 101.914 107.311 97.5214 110.408 94.2393C110.713 93.9394 110.714 93.9394 111.013 93.6455C111.53 93.1039 112.056 92.5701 112.587 92.043Z" fill="#222222"/>
<path d="M156.143 92.043C161.989 86.8123 170.898 87.002 176.879 91.9404C179.778 94.792 182.136 98.1617 182.544 102.354C182.837 107.359 182.074 111.482 178.867 115.451C176.172 118.35 172.795 120.694 168.816 121.088C163.859 121.39 159.758 120.6 155.863 117.256C152.776 114.256 150.57 110.679 150.392 106.246C150.323 101.914 150.866 97.5214 153.964 94.2393C154.269 93.9392 154.27 93.9396 154.569 93.6455C155.086 93.104 155.611 92.5701 156.143 92.043Z" fill="#222222"/>
<path fill-rule="evenodd" clip-rule="evenodd" d="M145.259 0.257812C149.676 0.257812 153.839 1.19186 157.746 3.06055C161.654 4.75939 165.051 7.22338 167.939 10.4512C168.449 10.9608 170.403 13.1697 173.801 17.0771C177.199 20.8146 181.531 25.6557 186.798 31.6016C192.064 37.5476 198.011 44.2585 204.637 51.7334C211.093 59.2085 217.804 66.8541 224.77 74.6689C231.565 82.4836 238.276 90.1286 244.901 97.6035C251.357 105.079 257.219 111.789 262.485 117.735C267.752 123.681 272.17 128.608 275.737 132.516C279.135 136.422 281.089 138.631 281.599 139.141C286.526 145.087 288.989 151.882 288.989 159.527V177.11C288.989 185.944 285.762 193.335 279.306 199.281L227.317 246.935C221.541 252.201 214.661 254.834 206.676 254.834H143.729C139.313 254.834 135.15 253.985 131.243 252.286C127.336 250.417 123.937 247.868 121.049 244.641C120.877 244.469 119.093 242.515 115.697 238.78C112.299 234.873 107.967 229.946 102.7 224C97.2636 217.884 91.2323 211.003 84.6064 203.358C77.8108 195.544 70.9304 187.644 63.9648 179.659C56.8293 171.674 49.8631 163.86 43.0674 156.215C36.2717 148.4 30.2413 141.519 24.9746 135.573C19.708 129.627 15.4604 124.87 12.2324 121.303C9.00443 117.565 7.38965 115.696 7.38965 115.696C2.46288 109.75 0 103.039 0 95.5645V77.9814C0 69.1473 3.22763 61.7566 9.68359 55.8105L61.6709 8.15723C67.4473 2.89072 74.2435 0.257813 82.0586 0.257812H145.259ZM144.595 49.1465C139.455 49.1051 134.523 49.6397 129.533 50.9395C129.289 51.0074 129.051 51.0727 128.813 51.1387C118.993 53.8374 109.443 59.2619 102.353 66.7217C102.058 67.0409 101.772 67.3513 101.485 67.6611C88.6432 81.4593 84.5724 97.4079 84.6465 115.968C84.6538 117.667 84.6554 119.366 84.6553 121.065C84.6548 123.922 84.659 126.778 84.668 129.634C84.6787 132.943 84.686 136.252 84.6855 139.562C84.685 143.133 84.6871 146.705 84.6934 150.277C84.6952 151.298 84.6968 152.318 84.6973 153.339C84.6977 154.965 84.6991 156.592 84.7051 158.219C84.7076 158.821 84.7099 159.423 84.7119 160.024C84.7098 163.096 84.6904 166.092 85.3174 169.114C85.3765 169.37 85.4348 169.619 85.4922 169.867C87.4908 179.015 92.0848 187.438 99.0869 193.582C99.4394 193.882 99.7819 194.174 100.124 194.466C106.285 199.781 113.701 203.143 121.689 204.409C125.316 204.832 129.263 205.308 132.269 203.038C133.726 201.354 133.911 199.693 133.832 197.543C133.742 195.613 133.694 193.729 134.039 191.825C135.38 187.539 137.624 184.38 141.426 182.079C146.111 179.621 150.698 179.835 155.62 181.317C156.831 181.692 158.046 182.053 159.264 182.404C159.514 182.476 159.756 182.546 159.999 182.615C163.827 183.718 167.841 184.641 171.847 184.473C172.104 184.454 172.354 184.436 172.604 184.418C176.815 184.256 181.004 183.205 184.854 181.464C193.216 177.285 199.737 170.766 202.945 161.736C203.088 161.293 203.089 161.293 203.229 160.858C204.808 156.104 204.808 156.103 204.766 145.041C204.76 143.652 204.759 142.262 204.76 140.873C204.762 138.534 204.76 136.196 204.752 133.857C204.747 132.506 204.744 131.154 204.742 129.802V117.835C204.74 116.718 204.737 115.602 204.738 114.485C204.746 109.164 204.902 103.831 203.827 98.5947C203.74 98.2078 203.654 97.8316 203.569 97.4561C203.383 96.5775 203.197 95.7027 202.979 94.832C202.912 94.5832 202.847 94.3411 202.782 94.0996C200.132 84.1013 194.804 74.3777 187.478 67.1582C187.164 66.858 186.86 66.5668 186.556 66.2754C178.98 58.9666 170.02 53.53 159.865 50.9033C159.569 50.8287 159.28 50.757 158.992 50.6846C154.494 49.5192 150.07 49.176 145.444 49.1504C145.155 49.1493 144.875 49.1475 144.595 49.1465Z" fill="#222222"/>
</svg>
